<svg xmlns="http://www.w3.org/2000/svg" width="1600" height="900" viewBox="0 0 1600 900" role="img" aria-labelledby="title desc">
  <title id="title">Seasonal planning guide fallback</title>
  <desc id="desc">Split alpine illustration contrasting spring blossom with summer hiking season.</desc>
  <defs>
    <linearGradient id="leftSky" x1="0%" y1="0%" x2="0%" y2="100%">
      <stop offset="0%" stop-color="#e7effd" />
      <stop offset="100%" stop-color="#f9fcff" />
    </linearGradient>
    <linearGradient id="rightSky" x1="0%" y1="0%" x2="0%" y2="100%">
      <stop offset="0%" stop-color="#d8f1ff" />
      <stop offset="100%" stop-color="#f7fcff" />
    </linearGradient>
  </defs>
  <rect x="0" y="0" width="800" height="900" fill="url(#leftSky)" />
  <rect x="800" y="0" width="800" height="900" fill="url(#rightSky)" />
  <circle cx="1218" cy="166" r="88" fill="#fff4bf" />
  <circle cx="340" cy="176" r="74" fill="#f6d7ea" />
  <path d="M0 560L132 482L262 532L412 402L528 484L648 358L760 462L800 438V900H0Z" fill="#d5e2ee" />
  <path d="M800 520L954 402L1068 470L1188 310L1324 440L1448 276L1600 390V900H800Z" fill="#d6e3ef" />
  <path d="M0 706C114 676 214 620 342 624C466 628 572 694 692 704C744 708 774 696 800 682V900H0Z" fill="#92b87f" />
  <path d="M800 678C916 626 1016 590 1130 592C1266 594 1380 650 1502 684C1540 694 1572 700 1600 702V900H800Z" fill="#6fb36a" />
  <path d="M142 714C214 652 288 648 354 704C402 744 430 808 458 856H182C188 806 146 760 142 714Z" fill="#8b5a71" />
  <circle cx="246" cy="658" r="30" fill="#f7d8e8" />
  <circle cx="202" cy="698" r="28" fill="#f7d8e8" />
  <circle cx="290" cy="702" r="28" fill="#f7d8e8" />
  <circle cx="242" cy="738" r="30" fill="#f7d8e8" />
  <path d="M1170 730L1242 616L1318 730Z" fill="#0f6b9a" />
  <rect x="1226" y="586" width="16" height="78" rx="8" fill="#7b5738" />
  <path d="M112 116H1490V224H112Z" fill="#ffffff" fill-opacity="0.82" rx="24" />
  <text x="156" y="170" fill="#0f6b9a" font-family="'Segoe UI', Arial, sans-serif" font-size="42" font-weight="800">Spring vs Summer Planning</text>
  <text x="156" y="212" fill="#4b5e70" font-family="'Segoe UI', Arial, sans-serif" font-size="24">Crowds, access, and weather trade-offs in one view</text>
  <text x="210" y="302" fill="#8b5a71" font-family="'Segoe UI', Arial, sans-serif" font-size="34" font-weight="800">Spring</text>
  <text x="1192" y="302" fill="#0f6b9a" font-family="'Segoe UI', Arial, sans-serif" font-size="34" font-weight="800">Summer</text>
</svg>
