<svg xmlns="http://www.w3.org/2000/svg" width="1600" height="900" viewBox="0 0 1600 900" role="img" aria-labelledby="title desc">
  <title id="title">Swiss transport pass guide fallback</title>
  <desc id="desc">Stylized train ticket and rail illustration for choosing Swiss transport passes.</desc>
  <defs>
    <linearGradient id="bg" x1="0%" y1="0%" x2="100%" y2="100%">
      <stop offset="0%" stop-color="#edf6fc" />
      <stop offset="100%" stop-color="#d7edf8" />
    </linearGradient>
    <linearGradient id="ticket" x1="0%" y1="0%" x2="100%" y2="100%">
      <stop offset="0%" stop-color="#0f6b9a" />
      <stop offset="100%" stop-color="#1a8fcd" />
    </linearGradient>
  </defs>
  <rect width="1600" height="900" fill="url(#bg)" />
  <rect x="166" y="168" width="590" height="410" rx="34" fill="#ffffff" fill-opacity="0.88" stroke="#d7e3ee" stroke-width="3" />
  <rect x="234" y="238" width="452" height="274" rx="28" fill="url(#ticket)" />
  <circle cx="264" cy="376" r="24" fill="#ffffff" fill-opacity="0.9" />
  <circle cx="656" cy="376" r="24" fill="#ffffff" fill-opacity="0.9" />
  <text x="284" y="316" fill="#ffffff" font-family="'Segoe UI', Arial, sans-serif" font-size="28" font-weight="700">SWISS PASS DECISION</text>
  <text x="284" y="376" fill="#ffffff" font-family="'Segoe UI', Arial, sans-serif" font-size="64" font-weight="800">Saver Day</text>
  <text x="284" y="428" fill="#dff3ff" font-family="'Segoe UI', Arial, sans-serif" font-size="28">Half Fare Card vs point-to-point logic</text>
  <path d="M884 570C934 438 1010 338 1118 278C1218 222 1332 214 1448 254" fill="none" stroke="#7eb7d7" stroke-width="18" stroke-linecap="round" />
  <path d="M824 618H1452C1468 618 1480 630 1480 646V692H796V646C796 630 808 618 824 618Z" fill="#0f6b9a" />
  <rect x="836" y="392" width="592" height="222" rx="44" fill="#ffffff" stroke="#0f6b9a" stroke-width="18" />
  <rect x="902" y="450" width="112" height="84" rx="16" fill="#d7edf8" />
  <rect x="1046" y="450" width="112" height="84" rx="16" fill="#d7edf8" />
  <rect x="1190" y="450" width="112" height="84" rx="16" fill="#d7edf8" />
  <circle cx="938" cy="648" r="32" fill="#1a2633" />
  <circle cx="1338" cy="648" r="32" fill="#1a2633" />
  <text x="168" y="114" fill="#0f6b9a" font-family="'Segoe UI', Arial, sans-serif" font-size="42" font-weight="800">Swiss Transport Pass Decision Guide</text>
  <text x="168" y="156" fill="#4b5e70" font-family="'Segoe UI', Arial, sans-serif" font-size="24">Match pass value to your actual movement days</text>
</svg>
